<?xml version="1.0" encoding="UTF-8"?>
<svg id="FIEG_BRANCA" xmlns="http://www.w3.org/2000/svg" viewBox="0 0 123.21 23.01">
  <defs>
    <style>
      .cls-1 {
        fill: #fff;
      }

      .cls-2 {
        isolation: isolate;
      }
    </style>
  </defs>
  <path class="cls-1" d="M17.87,1.59l-.03.19-.47,2.64c-.06.22-.16.39-.32.54-.17.16-.36.23-.58.23h-5.73c-.6,0-1.04.12-1.31.36-.27.23-.47.69-.59,1.37l-.4,2.27h7.02c.43,0,.7.26.7.7v.11l-.46,2.7c-.05.22-.17.4-.34.54-.17.16-.37.23-.58.23h-7.11l-1.4,8.04c-.06.22-.17.4-.34.55-.18.15-.38.29-.59.29H.47C.16,22.35,0,22.19,0,21.88v-.11L2.64,6.78c.23-1.37.6-2.47,1.1-3.29.5-.82,1.11-1.45,1.83-1.89.71-.43,1.51-.72,2.39-.85.88-.14,1.82-.2,2.83-.2h.94c.77,0,1.45.02,2.01.04.57.03,1.07.07,1.5.1.43.04.79.08,1.1.13l.82.13c.63.1.71.44.71.65h0Z"/>
  <path class="cls-1" d="M25.59,5.65l-.64,3.66-2.14,12.27c-.05.21-.16.39-.31.53-.17.16-.37.24-.58.24h-4.87s-.02,0-.03-.01c-.06,0-.12-.01-.16-.03-.05-.02-.09-.05-.12-.09-.07-.08-.1-.18-.1-.3v-.14l2.26-13.01,6.69-3.12Z"/>
  <path class="cls-1" d="M26.3,1.47v.16l-.3,1.73-6.7,3.12.85-4.86.05-.27c.06-.37.26-.55.61-.55h4.79c.44,0,.7.25.7.67Z"/>
  <path class="cls-1" d="M42.39.91c-.25-.04-.52-.08-.83-.11-.3-.04-.67-.08-1.1-.11-.43-.04-.92-.07-1.48-.1-.55-.03-1.23-.04-2-.04h-.95c-.99,0-1.92.06-2.81.17-.89.12-1.69.39-2.39.81-.71.42-1.32,1.05-1.83,1.87s-.9,1.94-1.15,3.35l-1.72,9.62c-.1.54-.15,1.01-.15,1.42,0,.93.18,1.7.54,2.32.36.62.84,1.11,1.43,1.48.59.37,1.26.63,2,.78s1.48.23,2.24.23,1.48-.01,2.06-.04c.31-.02.6-.03.87-.05h.14c.57-.03,1.07-.06,1.51-.1s.81-.08,1.14-.11c.32-.04.61-.08.86-.11.62-.09.81-.49.86-.79l.48-2.67v-.08c0-.46-.27-.73-.73-.73h-5.74c-.61,0-.91-.11-1.04-.21-.17-.12-.26-.36-.26-.73,0-.19.03-.42.08-.69l.5-2.79h7.11c.21,0,.41-.08.59-.23.17-.15.28-.32.34-.54l.46-2.71v-.08c0-.46-.26-.73-.7-.73h-7.02l.4-2.32c.17-.94.44-1.29.64-1.41.31-.19.73-.29,1.27-.29h5.74c.21,0,.41-.08.58-.24.16-.15.26-.32.32-.53l.47-2.65s.04-.12.04-.2c0-.2-.09-.54-.72-.64l-.05-.03h0Z"/>
  <path class="cls-1" d="M60.76,1.35c-.09-.05-.19-.1-.33-.15-.52-.11-1.27-.25-2.23-.41-.98-.16-2.2-.24-3.61-.24h-.94c-1.18,0-2.32.11-3.42.32-1.1.21-2.12.65-3.04,1.3-.93.66-1.74,1.59-2.43,2.8-.7,1.21-1.22,2.82-1.57,4.82l-.64,3.59c-.14.73-.2,1.46-.2,2.17,0,1.3.22,2.39.65,3.29s.99,1.63,1.65,2.19c.67.56,1.41.96,2.22,1.2.81.24,1.58.36,2.32.36,1,0,1.91-.03,2.73-.09.74-.03,1.43-.08,2.04-.15,1.04-.12,1.97-.26,2.77-.41.28-.05.48-.13.62-.27s.22-.32.27-.59l1.67-9.54v-.11c0-.44-.26-.7-.7-.7h-2.21c-.46,0-.88-.02-1.32.02-.34.05-.67.12-.99.22-.33.11-.6.24-.7.61l-1.09,6.27c-.42.02-.85.03-1.3.03-.31,0-.61-.04-.89-.12-.26-.07-.5-.21-.7-.41-.21-.2-.37-.47-.49-.81-.12-.35-.18-.8-.18-1.36,0-.25.02-.53.05-.83.04-.31.08-.64.14-.99l.62-3.53c.17-.95.39-1.74.66-2.34.27-.59.58-1.06.93-1.39.34-.33.75-.55,1.19-.67.47-.13.98-.19,1.52-.19,1.2,0,2.31.03,3.31.08l2.54.14h.08c.18,0,.33-.04.44-.11.13-.08.23-.23.28-.46l.54-3v-.13c0-.18-.09-.34-.25-.43h0v.02Z"/>
  <g class="cls-2">
    <g class="cls-2">
      <path class="cls-1" d="M67.77,1.86l-.17.97h2.15c.08,0,.13.03.11.14l-.04.27c-.01.08-.04.14-.17.14h-2.15l-.4,2.29c-.01.08-.05.14-.16.14h-.36c-.1,0-.13-.06-.12-.14l.67-3.81c.18-1.04.74-1.3,1.72-1.3.75,0,1.08,0,1.32.06.09,0,.11.04.09.11l-.06.33s-.03.08-.09.08h-1.35c-.74,0-.9.2-1,.73h.01Z"/>
      <path class="cls-1" d="M73.31,3.63l-.06.29c-.02.09-.05.15-.15.15h-2.36v.08c-.04.16-.06.3-.06.43,0,.53.33.75.87.75.41,0,.88-.05,1.21-.1.11-.01.15,0,.13.1l-.04.24c-.01.1-.05.14-.17.16-.41.08-.76.12-1.23.12-.69,0-1.38-.35-1.38-1.3,0-.13.01-.28.04-.43l.09-.49c.21-1.11.86-1.73,1.86-1.73.87,0,1.28.57,1.28,1.3,0,.13-.01.27-.04.42h.01ZM71.98,2.45c-.61,0-1.02.48-1.14,1.13v.04h1.85v-.04c.04-.14.05-.27.05-.38,0-.5-.26-.74-.76-.74h0Z"/>
      <path class="cls-1" d="M76.76.54h.36c.08,0,.11.04.1.13l-.86,4.9c-.01.09-.05.14-.17.16-.45.08-.88.12-1.31.12-.85,0-1.27-.53-1.27-1.29,0-.14.01-.29.04-.44l.09-.5c.22-1.2.81-1.72,1.83-1.72.22,0,.55.02.8.07l.23-1.3c.02-.1.08-.13.16-.13h0ZM75.47,2.45c-.69,0-.99.5-1.12,1.18l-.09.5c-.03.17-.05.32-.05.46,0,.48.21.74.75.74.24,0,.58-.02.83-.04l.49-2.78c-.22-.04-.58-.05-.81-.05h0Z"/>
      <path class="cls-1" d="M80.35,3.63l-.06.29c-.02.09-.05.15-.15.15h-2.36v.08c-.04.16-.06.3-.06.43,0,.53.33.75.87.75.41,0,.88-.05,1.21-.1.1-.01.15,0,.13.1l-.04.24c-.01.1-.05.14-.17.16-.41.08-.76.12-1.23.12-.69,0-1.38-.35-1.38-1.3,0-.13.01-.28.04-.43l.09-.49c.21-1.11.86-1.73,1.86-1.73.87,0,1.28.57,1.28,1.3,0,.13-.01.27-.04.42h.01ZM79.02,2.45c-.61,0-1.01.48-1.14,1.13v.04h1.85v-.04c.04-.14.05-.27.05-.38,0-.5-.26-.74-.76-.74h0Z"/>
    </g>
    <g class="cls-2">
      <path class="cls-1" d="M81.18,5.67c-.01.08-.09.14-.17.14h-.34c-.08,0-.12-.07-.1-.14l.62-3.57c.01-.08.08-.14.16-.14h.33c.08,0,.12.07.11.14l-.03.16c.38-.29.71-.35,1.04-.35h.01c.12,0,.14.05.13.13l-.05.29c-.01.08-.07.12-.17.12h-.02c-.4,0-.66.07-1,.29l-.51,2.93h-.01Z"/>
    </g>
    <g class="cls-2">
      <path class="cls-1" d="M85.72,2.07c.13.03.13.07.12.16l-.6,3.44c-.01.08-.05.14-.16.14h-.28c-.11,0-.12-.06-.11-.15l.04-.22c-.41.29-.66.42-1.13.42-.59,0-1.09-.38-1.09-1.24,0-.13.01-.27.04-.42l.13-.69c.22-1.21.98-1.6,1.82-1.6.42,0,.87.07,1.23.16h-.01ZM84.5,2.43c-.72,0-1.08.4-1.22,1.14l-.13.72c-.02.1-.03.22-.03.32,0,.54.27.73.61.73s.63-.15,1.01-.41l.43-2.44c-.19-.04-.38-.07-.68-.07h0Z"/>
      <path class="cls-1" d="M88.88,2.14l-.04.25c-.01.07-.08.11-.15.11h-.02c-.3-.04-.51-.05-.85-.05-.56,0-.97.44-1.09,1.16l-.09.55c-.03.16-.04.29-.04.42,0,.53.25.74.71.74.34,0,.57-.01.88-.05h.02c.06,0,.1.03.1.08v.02l-.04.25c-.01.1-.06.13-.17.15-.24.04-.56.08-.89.08-.82,0-1.23-.57-1.23-1.32,0-.13.01-.25.04-.39l.09-.55c.19-1.13.84-1.7,1.79-1.7.33,0,.64.04.86.08.08,0,.12.04.12.11v.05h0ZM87.55,6.14l-.95.88c-.08.07-.1.1-.17.1h-.38s-.06-.01-.06-.04c0-.02.01-.05.04-.08l.83-.87c.08-.08.1-.1.19-.1h.46s.07.01.07.04c0,.01,0,.03-.03.06h0Z"/>
      <path class="cls-1" d="M92.13,2.23l-.6,3.44c-.01.08-.08.14-.16.14h-.28c-.08,0-.11-.05-.11-.11v-.03h0l.04-.23c-.41.29-.66.42-1.13.42-.59,0-1.09-.38-1.09-1.24,0-.13.01-.27.04-.42l.13-.69c.22-1.21.98-1.6,1.82-1.6.42,0,.87.07,1.23.16.09.02.13.04.13.11v.06h-.02ZM90.79,2.43c-.72,0-1.08.4-1.22,1.14l-.13.72c-.02.1-.03.22-.03.32,0,.54.27.73.61.73s.63-.15,1.01-.41l.43-2.44c-.19-.04-.38-.07-.68-.07h0ZM92.34.53l-.03.16c-.08.48-.27.74-.71.74-.15,0-.37-.03-.53-.18l-.33-.31c-.14-.13-.17-.15-.26-.15-.17,0-.25.11-.28.32l-.02.15c0,.06-.06.12-.12.12h-.24c-.06,0-.09-.04-.09-.1v-.02l.02-.15c.08-.56.35-.76.73-.76.21,0,.34.06.52.22l.38.34c.06.06.16.1.22.1.14,0,.22-.07.27-.31l.03-.16c.01-.06.06-.12.12-.12h.24c.06,0,.09.04.09.1v.02h0Z"/>
      <path class="cls-1" d="M95.54,3.62l-.09.53c-.18,1.06-.76,1.71-1.86,1.71-.84,0-1.29-.55-1.29-1.32,0-.13.01-.25.04-.39l.09-.53c.2-1.13.81-1.71,1.86-1.71.86,0,1.3.55,1.3,1.32,0,.13-.01.26-.04.39h-.01ZM94.19,2.45c-.61,0-1.03.46-1.15,1.17l-.09.53c-.03.15-.04.29-.04.41,0,.5.22.76.77.76.62,0,1.04-.48,1.16-1.17l.09-.53c.03-.15.04-.28.04-.4,0-.5-.22-.77-.77-.77h-.01Z"/>
      <path class="cls-1" d="M100.62.54h.36c.08,0,.11.04.1.13l-.86,4.9c-.01.09-.05.14-.18.16-.45.08-.88.12-1.31.12-.85,0-1.27-.53-1.27-1.29,0-.14.01-.29.04-.44l.09-.5c.22-1.2.81-1.72,1.83-1.72.22,0,.55.02.81.07l.23-1.3c.02-.1.08-.13.16-.13ZM99.33,2.45c-.69,0-.99.5-1.12,1.18l-.09.5c-.03.17-.05.32-.05.46,0,.48.21.74.75.74.24,0,.58-.02.83-.04l.49-2.78c-.22-.04-.58-.05-.81-.05h0Z"/>
      <path class="cls-1" d="M104.1,2.07c.13.03.13.07.12.16l-.6,3.44c-.01.08-.05.14-.16.14h-.28c-.1,0-.12-.06-.1-.15l.03-.22c-.41.29-.66.42-1.13.42-.6,0-1.09-.38-1.09-1.24,0-.13.01-.27.04-.42l.13-.69c.22-1.21.98-1.6,1.82-1.6.42,0,.87.07,1.23.16h-.01ZM102.87,2.43c-.72,0-1.09.4-1.22,1.14l-.13.72c-.02.1-.03.22-.03.32,0,.54.27.73.61.73s.63-.15,1.02-.41l.43-2.44c-.19-.04-.38-.07-.68-.07h0Z"/>
      <path class="cls-1" d="M107.11,2c.11.02.12.04.11.14l-.04.23c-.01.08-.06.13-.16.12-.24-.03-.64-.06-1.03-.06-.32,0-.74.09-.74.5,0,.18.14.31.38.46l.62.41c.48.32.62.57.62.94,0,.83-.74,1.11-1.51,1.11-.29,0-.78-.03-1.09-.1-.07-.01-.13-.06-.12-.14l.04-.25c.02-.09.06-.12.17-.1.33.04.83.08,1.09.08.41,0,.79-.15.79-.59,0-.16-.08-.29-.41-.5l-.63-.41c-.39-.25-.59-.53-.59-.91,0-.78.75-1.02,1.45-1.02.54,0,.73.03,1.03.09h.02Z"/>
    </g>
    <g class="cls-2">
      <path class="cls-1" d="M67.7,9.01c.09,0,.12.04.11.13l-.87,4.93c-.01.1-.06.14-.15.14h-.38c-.09,0-.11-.07-.1-.14l.87-4.93c.01-.07.04-.13.15-.13h.39-.02Z"/>
      <path class="cls-1" d="M71.1,11.77l-.41,2.3c-.01.08-.09.14-.17.14h-.34c-.08,0-.13-.07-.11-.14l.41-2.3c.02-.13.04-.27.04-.38,0-.34-.14-.53-.65-.53-.27,0-.54.06-.99.27l-.52,2.96c-.01.07-.09.14-.17.14h-.34c-.08,0-.12-.08-.11-.14l.62-3.57c.01-.08.06-.14.18-.14h.29c.11,0,.15.04.13.14l-.02.15c.34-.19.65-.34,1.13-.34.75,0,1.05.48,1.05,1.08,0,.12-.01.26-.04.38l.02-.02Z"/>
      <path class="cls-1" d="M74.62,8.94h.36c.08,0,.11.04.1.13l-.86,4.9c-.01.09-.05.14-.17.16-.45.08-.88.12-1.31.12-.85,0-1.27-.53-1.27-1.29,0-.14.01-.29.04-.44l.09-.5c.22-1.2.81-1.72,1.83-1.72.22,0,.55.02.8.07l.23-1.3c.02-.1.08-.13.16-.13h0ZM73.33,10.85c-.69,0-.99.5-1.12,1.18l-.09.5c-.03.17-.05.32-.05.46,0,.48.21.74.75.74.24,0,.58-.02.83-.04l.49-2.78c-.22-.04-.58-.05-.81-.05h0Z"/>
      <path class="cls-1" d="M78.44,10.5l-.62,3.57c-.01.08-.08.14-.16.14h-.33c-.07,0-.1-.05-.1-.11v-.03l.02-.13c-.42.22-.75.32-1.16.32-.6,0-1.02-.37-1.02-1.11,0-.13.01-.27.04-.43l.39-2.23c.01-.08.09-.14.17-.14h.34c.07,0,.11.05.11.11v.03l-.41,2.3c-.03.15-.04.29-.04.4,0,.39.19.52.65.52.29,0,.64-.1.99-.26l.52-2.96c.01-.08.09-.14.17-.14h.34c.07,0,.11.06.11.11v.03h0ZM78.32,8.86l-.95.88c-.08.07-.1.11-.17.11h-.38s-.06-.01-.06-.04c0-.02.01-.05.04-.08l.84-.87c.08-.08.1-.11.18-.11h.46s.07.01.07.04c0,.01,0,.04-.04.06h0Z"/>
    </g>
    <g class="cls-2">
      <path class="cls-1" d="M81.35,10.4c.11.02.12.04.11.14l-.04.23c-.01.08-.06.13-.16.12-.24-.03-.64-.06-1.03-.06-.32,0-.74.09-.74.5,0,.18.14.31.38.46l.62.41c.48.32.62.57.62.94,0,.83-.74,1.11-1.51,1.11-.29,0-.78-.03-1.09-.1-.07-.01-.13-.06-.12-.14l.04-.25c.02-.09.06-.12.17-.1.33.04.83.08,1.09.08.41,0,.79-.15.79-.59,0-.16-.08-.29-.41-.5l-.63-.41c-.39-.25-.59-.53-.59-.91,0-.78.75-1.02,1.45-1.02.54,0,.73.03,1.03.09h.02Z"/>
    </g>
    <g class="cls-2">
      <path class="cls-1" d="M83.88,10.36c.08,0,.13.04.11.14l-.04.24c-.02.13-.08.14-.16.14h-.76l-.43,2.46c-.01.08-.02.15-.02.2,0,.2.1.22.32.22h.43c.08,0,.11.02.1.1l-.04.25c-.01.06-.05.11-.15.12-.14.02-.31.04-.44.04-.48,0-.84-.18-.84-.67,0-.09,0-.16.03-.27l.43-2.44-.67-.08c-.07,0-.13-.06-.11-.13l.03-.19c.02-.1.08-.13.15-.13h.68l.11-.69c.01-.07.08-.13.15-.14l.37-.06c.1-.01.12.05.1.12l-.13.76h.78Z"/>
      <path class="cls-1" d="M84.38,14.07c-.01.08-.09.14-.17.14h-.34c-.08,0-.12-.07-.1-.14l.62-3.57c.01-.08.08-.14.16-.14h.33c.08,0,.12.07.11.14l-.03.16c.38-.29.71-.35,1.04-.35h.01c.12,0,.14.05.13.13l-.05.29c-.01.08-.07.12-.17.12h-.02c-.4,0-.66.07-1,.29l-.51,2.93h-.01Z"/>
      <path class="cls-1" d="M87.08,10.36c.08,0,.13.03.11.14l-.62,3.57c-.01.08-.05.14-.17.14h-.34c-.1,0-.13-.07-.11-.14l.62-3.57c.02-.13.09-.14.17-.14h.34ZM87.35,8.9c.1,0,.13.04.11.14l-.1.56c-.02.1-.06.14-.17.14h-.36c-.11,0-.13-.07-.11-.14l.1-.56c.01-.08.06-.14.17-.14h.36Z"/>
      <path class="cls-1" d="M90.55,10.47c.13.03.13.07.12.16l-.6,3.44c-.01.08-.05.14-.16.14h-.28c-.1,0-.12-.06-.1-.15l.03-.22c-.41.29-.66.42-1.13.42-.6,0-1.09-.38-1.09-1.24,0-.13.01-.27.04-.42l.13-.69c.22-1.21.98-1.6,1.82-1.6.42,0,.87.07,1.23.16h-.01ZM89.33,10.83c-.72,0-1.09.4-1.22,1.14l-.13.72c-.02.1-.03.22-.03.32,0,.54.27.73.61.73s.63-.15,1.02-.41l.43-2.44c-.19-.04-.38-.07-.68-.07h0Z"/>
      <path class="cls-1" d="M93.56,10.4c.11.02.12.04.11.14l-.04.23c-.01.08-.06.13-.16.12-.24-.03-.64-.06-1.03-.06-.32,0-.74.09-.74.5,0,.18.14.31.38.46l.62.41c.48.32.62.57.62.94,0,.83-.74,1.11-1.51,1.11-.29,0-.78-.03-1.09-.1-.07-.01-.13-.06-.12-.14l.04-.25c.02-.09.06-.12.17-.1.33.04.83.08,1.09.08.41,0,.79-.15.79-.59,0-.16-.08-.29-.41-.5l-.63-.41c-.39-.25-.59-.53-.59-.91,0-.78.75-1.02,1.45-1.02.54,0,.73.03,1.03.09h.02Z"/>
      <path class="cls-1" d="M98.6,8.94h.36c.08,0,.11.04.1.13l-.86,4.9c-.01.09-.05.14-.17.16-.45.08-.88.12-1.31.12-.85,0-1.27-.53-1.27-1.29,0-.14.01-.29.04-.44l.09-.5c.22-1.2.81-1.72,1.83-1.72.22,0,.55.02.8.07l.23-1.3c.02-.1.08-.13.16-.13h0ZM97.31,10.85c-.69,0-.99.5-1.12,1.18l-.09.5c-.03.17-.05.32-.05.46,0,.48.21.74.75.74.24,0,.58-.02.83-.04l.49-2.78c-.22-.04-.58-.05-.81-.05h0Z"/>
      <path class="cls-1" d="M102.2,12.02l-.09.53c-.18,1.06-.76,1.71-1.86,1.71-.84,0-1.29-.55-1.29-1.32,0-.13.01-.25.04-.39l.09-.53c.2-1.13.81-1.71,1.86-1.71.86,0,1.3.55,1.3,1.32,0,.13-.01.26-.04.39h-.01ZM100.85,10.85c-.61,0-1.03.46-1.15,1.17l-.09.53c-.03.15-.04.29-.04.41,0,.5.22.76.77.76.62,0,1.04-.48,1.16-1.17l.09-.53c.03-.15.04-.28.04-.4,0-.5-.22-.77-.77-.77h-.01Z"/>
      <path class="cls-1" d="M105.39,10.26l-.17.97h2.15c.08,0,.13.04.11.14l-.04.27c-.01.08-.05.14-.17.14h-2.15l-.2,1.18c-.02.11-.04.2-.04.29,0,.32.18.44.76.44h1.33c.07,0,.1.01.08.08l-.06.34s-.01.08-.08.1c-.2.02-.96.05-1.37.05-.8,0-1.29-.33-1.29-1.01,0-.09,0-.19.03-.29l.47-2.7c.18-1.03.74-1.3,1.72-1.3.79,0,1.17.03,1.36.06.05,0,.07.03.06.1l-.06.33c0,.07-.04.08-.09.08h-1.35c-.74,0-.9.2-.99.73h-.01Z"/>
    </g>
    <g class="cls-2">
      <path class="cls-1" d="M110.49,10.4c.1.02.12.04.1.14l-.04.23c-.01.08-.06.13-.16.12-.24-.03-.64-.06-1.03-.06-.32,0-.74.09-.74.5,0,.18.14.31.38.46l.62.41c.48.32.62.57.62.94,0,.83-.74,1.11-1.51,1.11-.29,0-.78-.03-1.09-.1-.07-.01-.13-.06-.12-.14l.04-.25c.02-.09.06-.12.18-.1.33.04.83.08,1.08.08.41,0,.79-.15.79-.59,0-.16-.08-.29-.41-.5l-.63-.41c-.38-.25-.59-.53-.59-.91,0-.78.75-1.02,1.45-1.02.54,0,.73.03,1.03.09h.03Z"/>
    </g>
    <g class="cls-2">
      <path class="cls-1" d="M113.03,10.36c.08,0,.13.04.11.14l-.04.24c-.02.13-.08.14-.16.14h-.76l-.43,2.46c-.01.08-.02.15-.02.2,0,.2.1.22.32.22h.43c.08,0,.11.02.1.1l-.04.25c-.01.06-.05.11-.15.12-.14.02-.31.04-.44.04-.48,0-.84-.18-.84-.67,0-.09,0-.16.03-.27l.43-2.44-.67-.08c-.07,0-.13-.06-.11-.13l.04-.19c.02-.1.08-.13.15-.13h.68l.11-.69c.01-.07.08-.13.15-.14l.37-.06c.1-.01.12.05.11.12l-.13.76h.76,0Z"/>
      <path class="cls-1" d="M116.14,10.47c.13.03.13.07.12.16l-.6,3.44c-.01.08-.05.14-.16.14h-.28c-.11,0-.12-.06-.11-.15l.04-.22c-.41.29-.66.42-1.13.42-.59,0-1.09-.38-1.09-1.24,0-.13.01-.27.04-.42l.13-.69c.22-1.21.98-1.6,1.82-1.6.42,0,.87.07,1.23.16h-.01ZM114.91,10.83c-.72,0-1.08.4-1.22,1.14l-.13.72c-.02.1-.03.22-.03.32,0,.54.27.73.61.73s.63-.15,1.01-.41l.43-2.44c-.19-.04-.39-.07-.68-.07h0Z"/>
      <path class="cls-1" d="M119.58,8.94h.36c.08,0,.11.04.1.13l-.86,4.9c-.01.09-.05.14-.18.16-.45.08-.88.12-1.31.12-.85,0-1.27-.53-1.27-1.29,0-.14.01-.29.04-.44l.09-.5c.22-1.2.81-1.72,1.83-1.72.22,0,.55.02.81.07l.23-1.3c.02-.1.08-.13.16-.13ZM118.29,10.85c-.69,0-.99.5-1.12,1.18l-.09.5c-.03.17-.05.32-.05.46,0,.48.21.74.75.74.24,0,.58-.02.83-.04l.49-2.78c-.22-.04-.58-.05-.81-.05h0Z"/>
      <path class="cls-1" d="M123.17,12.02l-.09.53c-.18,1.06-.76,1.71-1.86,1.71-.84,0-1.29-.55-1.29-1.32,0-.13.01-.25.04-.39l.09-.53c.2-1.13.81-1.71,1.86-1.71.86,0,1.3.55,1.3,1.32,0,.13-.01.26-.04.39h-.01ZM121.82,10.85c-.61,0-1.03.46-1.15,1.17l-.09.53c-.03.15-.04.29-.04.41,0,.5.22.76.77.76.62,0,1.04-.48,1.16-1.17l.09-.53c.03-.15.04-.28.04-.4,0-.5-.22-.77-.77-.77h-.01Z"/>
    </g>
    <g class="cls-2">
      <path class="cls-1" d="M67.74,17.34h.36c.08,0,.11.04.1.13l-.86,4.9c-.01.09-.05.14-.17.16-.45.08-.88.12-1.31.12-.85,0-1.27-.53-1.27-1.29,0-.14.01-.29.04-.44l.09-.5c.22-1.2.81-1.72,1.83-1.72.22,0,.55.02.8.07l.23-1.3c.02-.1.08-.13.16-.13h0ZM66.45,19.25c-.69,0-.99.5-1.12,1.18l-.09.5c-.03.17-.05.32-.05.46,0,.48.21.74.75.74.24,0,.58-.02.83-.04l.49-2.78c-.22-.04-.58-.05-.81-.05h0Z"/>
      <path class="cls-1" d="M71.33,20.43l-.06.29c-.02.09-.05.15-.15.15h-2.36v.08c-.04.16-.06.3-.06.43,0,.53.33.75.87.75.41,0,.88-.05,1.21-.1.1-.01.15,0,.13.1l-.04.24c-.01.1-.05.14-.17.16-.41.08-.76.12-1.23.12-.69,0-1.38-.35-1.38-1.3,0-.13.01-.28.04-.43l.09-.49c.21-1.11.86-1.73,1.86-1.73.87,0,1.28.57,1.28,1.3,0,.13-.01.27-.04.42h.01ZM70,19.25c-.61,0-1.01.48-1.14,1.13v.04h1.85v-.04c.04-.14.05-.27.05-.38,0-.5-.26-.74-.76-.74h0Z"/>
      <path class="cls-1" d="M77.17,17.46c.06,0,.11.03.1.1l-.06.35c0,.07-.05.08-.13.07-.41-.03-.73-.05-1.32-.05s-1.31.34-1.53,1.61l-.16.94c-.04.21-.06.39-.06.55,0,.79.41,1.06.95,1.06.43,0,.72-.03.89-.04l.36-2c.01-.08.07-.14.15-.14h.38c.07,0,.11.06.11.12v.02l-.42,2.35c-.01.08-.08.14-.15.15-.35.06-.75.1-1.41.1-.74,0-1.48-.48-1.48-1.65,0-.16.01-.34.05-.53l.16-.94c.31-1.79,1.32-2.19,2.26-2.19.65,0,1.06.06,1.32.1v.02Z"/>
      <path class="cls-1" d="M80.5,20.42l-.09.53c-.18,1.06-.76,1.71-1.86,1.71-.84,0-1.29-.55-1.29-1.32,0-.13.01-.25.04-.39l.09-.53c.2-1.13.81-1.71,1.86-1.71.86,0,1.3.55,1.3,1.32,0,.13-.01.26-.04.39h-.01ZM79.15,19.25c-.61,0-1.03.46-1.15,1.17l-.09.53c-.03.15-.04.29-.04.41,0,.5.22.76.77.76.62,0,1.04-.48,1.16-1.17l.09-.53c.03-.15.04-.28.04-.4,0-.5-.22-.77-.77-.77h-.01Z"/>
      <path class="cls-1" d="M81.89,18.76c.08,0,.13.03.11.14l-.62,3.57c-.01.08-.05.14-.17.14h-.34c-.1,0-.13-.07-.11-.14l.62-3.57c.02-.13.09-.14.17-.14h.34ZM82.17,17.3c.1,0,.13.04.11.14l-.1.56c-.02.1-.06.14-.17.14h-.36c-.1,0-.13-.07-.11-.14l.1-.56c.01-.08.06-.14.17-.14h.36Z"/>
      <path class="cls-1" d="M85.49,19.03l-.6,3.44c-.01.08-.08.14-.16.14h-.28c-.08,0-.1-.05-.1-.11v-.03h0l.03-.23c-.41.29-.66.42-1.13.42-.6,0-1.09-.38-1.09-1.24,0-.13.01-.27.04-.42l.13-.69c.22-1.21.98-1.6,1.82-1.6.42,0,.87.07,1.23.16.09.02.13.04.13.11v.06h-.02ZM84.14,19.23c-.72,0-1.09.4-1.22,1.14l-.13.72c-.02.1-.03.22-.03.32,0,.54.27.73.61.73s.63-.15,1.02-.41l.43-2.44c-.19-.04-.38-.07-.68-.07h0ZM85.51,17.26l-.95.88c-.08.07-.1.11-.17.11h-.38s-.06-.01-.06-.04c0-.02.01-.05.04-.08l.84-.87c.08-.08.1-.11.18-.11h.46s.07.01.07.04c0,.01,0,.04-.04.06h0Z"/>
      <path class="cls-1" d="M88.38,18.8c.1.02.12.04.1.14l-.04.23c-.01.08-.06.13-.16.12-.24-.03-.64-.06-1.03-.06-.32,0-.74.09-.74.5,0,.18.14.31.38.46l.62.41c.48.32.62.57.62.94,0,.83-.74,1.11-1.51,1.11-.29,0-.78-.03-1.09-.1-.07-.01-.13-.06-.12-.14l.04-.25c.02-.09.06-.12.18-.1.33.04.83.08,1.08.08.41,0,.79-.15.79-.59,0-.16-.08-.29-.41-.5l-.63-.41c-.38-.25-.59-.53-.59-.91,0-.78.75-1.02,1.45-1.02.54,0,.73.03,1.03.09h.03Z"/>
    </g>
  </g>
</svg>