<?xml version="1.0" encoding="UTF-8"?>
<svg id="Camada_1" xmlns="http://www.w3.org/2000/svg" viewBox="0 0 249.03 110">
  <defs>
    <style>
      .cls-1 {
        fill: #fff;
      }
    </style>
  </defs>
  <path class="cls-1" d="M55.55,30.3c.16-1.01-.47-1.48-1.33-1.48h-12.8c-.86,0-1.64.62-1.8,1.48l-2.44,13.86,17.36-8.13,1.01-5.72Z"/>
  <path class="cls-1" d="M36.09,50.37l-6.15,34.89c-.16.78.31,1.56,1.25,1.56h12.8c1.17,0,1.72-.7,1.87-1.56l7.58-43.03-17.36,8.13Z"/>
  <path class="cls-1" d="M163.58,28.81c.24,0,.31.11.27.35l-2.28,12.96c-.04.26-.15.37-.41.37h-1.01c-.24,0-.29-.18-.26-.37l2.28-12.96c.04-.18.11-.35.39-.35h1.01Z"/>
  <path class="cls-1" d="M172.78,36.06l-1.07,6.06c-.04.2-.24.37-.44.37h-.88c-.22,0-.33-.18-.29-.37l1.07-6.06c.06-.35.09-.72.09-1.01,0-.88-.37-1.4-1.71-1.4-.7,0-1.42.15-2.6.7l-1.36,7.77c-.04.18-.24.37-.44.37h-.9c-.22,0-.31-.2-.28-.37l1.64-9.39c.04-.2.15-.37.48-.37h.77c.29,0,.39.11.35.37l-.05.39c.88-.5,1.71-.88,2.96-.88,1.97,0,2.76,1.25,2.76,2.83,0,.31-.04.68-.09.99"/>
  <path class="cls-1" d="M181.17,32.47c.28.06.31.11.28.37l-.09.61c-.04.22-.15.35-.42.31-.63-.07-1.68-.15-2.71-.15-.85,0-1.93.24-1.93,1.31,0,.46.37.81.99,1.21l1.64,1.09c1.27.85,1.64,1.49,1.64,2.47,0,2.17-1.93,2.93-3.96,2.93-.77,0-2.06-.08-2.87-.28-.18-.04-.35-.17-.31-.37l.11-.64c.05-.24.15-.31.46-.28.87.11,2.19.2,2.85.2,1.09,0,2.08-.39,2.08-1.56,0-.42-.22-.75-1.07-1.31l-1.66-1.09c-1.01-.66-1.55-1.4-1.55-2.39,0-2.04,1.97-2.67,3.81-2.67,1.42,0,1.92.07,2.71.24"/>
  <path class="cls-1" d="M188.07,32.36c.22,0,.33.11.29.37l-.11.63c-.05.33-.22.37-.42.37h-1.99l-1.14,6.46c-.04.22-.06.39-.06.53,0,.53.26.59.85.59h1.12c.2,0,.29.06.26.26l-.11.64c-.03.17-.13.28-.38.31-.37.06-.81.09-1.16.09-1.25,0-2.21-.48-2.21-1.75,0-.24.02-.42.07-.72l1.14-6.42-1.75-.2c-.18-.02-.33-.15-.29-.33l.09-.5c.05-.26.2-.33.4-.33h1.79l.29-1.8c.04-.18.2-.33.41-.37l.98-.15c.26-.04.31.13.27.31l-.33,2.01h1.99Z"/>
  <path class="cls-1" d="M191.17,32.36c.22,0,.35.07.29.37l-1.64,9.39c-.04.2-.13.37-.44.37h-.88c-.26,0-.33-.18-.29-.37l1.64-9.39c.05-.33.24-.37.44-.37h.88ZM191.89,28.53c.26,0,.33.11.29.37l-.26,1.47c-.05.26-.15.37-.44.37h-.94c-.28,0-.33-.19-.29-.37l.26-1.47c.04-.2.16-.37.44-.37h.94Z"/>
  <path class="cls-1" d="M198.55,32.36c.22,0,.33.11.29.37l-.11.63c-.05.33-.22.37-.42.37h-1.99l-1.14,6.46c-.04.22-.06.39-.06.53,0,.53.26.59.85.59h1.12c.2,0,.29.06.26.26l-.11.64c-.03.17-.13.28-.39.31-.37.06-.81.09-1.16.09-1.25,0-2.21-.48-2.21-1.75,0-.24.02-.42.07-.72l1.14-6.42-1.75-.2c-.18-.02-.33-.15-.29-.33l.09-.5c.05-.26.2-.33.4-.33h1.79l.29-1.8c.04-.18.2-.33.4-.37l.98-.15c.26-.04.31.13.27.31l-.33,2.01h1.99Z"/>
  <path class="cls-1" d="M207.61,32.36c.26,0,.31.2.27.37l-1.64,9.39c-.04.2-.22.37-.42.37h-.86c-.22,0-.31-.18-.28-.37l.05-.33c-1.1.57-1.97.83-3.05.83-1.58,0-2.69-.98-2.69-2.91,0-.35.04-.72.11-1.12l1.03-5.85c.06-.28.24-.37.44-.37h.88c.22,0,.33.13.29.37l-1.07,6.06c-.07.4-.11.75-.11,1.05,0,1.03.5,1.36,1.71,1.36.77,0,1.69-.26,2.61-.68l1.36-7.79c.04-.2.13-.37.44-.37h.9Z"/>
  <path class="cls-1" d="M214.75,32.36c.22,0,.33.11.29.37l-.11.63c-.06.33-.22.37-.42.37h-1.99l-1.14,6.46c-.04.22-.06.39-.06.53,0,.53.26.59.85.59h1.12c.2,0,.29.06.26.26l-.11.64c-.04.17-.13.28-.39.31-.37.06-.81.09-1.16.09-1.25,0-2.21-.48-2.21-1.75,0-.24.02-.42.07-.72l1.14-6.42-1.75-.2c-.18-.02-.33-.15-.3-.33l.09-.5c.06-.26.2-.33.4-.33h1.79l.29-1.8c.04-.18.2-.33.4-.37l.98-.15c.26-.04.31.13.28.31l-.33,2.01h1.99Z"/>
  <path class="cls-1" d="M223.21,36.72l-.24,1.4c-.48,2.8-1.99,4.49-4.89,4.49-2.21,0-3.39-1.44-3.39-3.48,0-.33.04-.66.09-1.01l.24-1.4c.52-2.98,2.14-4.49,4.88-4.49,2.26,0,3.4,1.44,3.4,3.46,0,.33-.04.68-.09,1.03M219.66,33.65c-1.6,0-2.71,1.2-3.02,3.07l-.24,1.4c-.07.4-.11.75-.11,1.09,0,1.31.59,1.99,2.02,1.99,1.62,0,2.73-1.27,3.04-3.07l.24-1.4c.07-.39.09-.74.09-1.05,0-1.32-.59-2.02-2.02-2.02"/>
  <path class="cls-1" d="M159.58,54.18l-.44,2.56h5.65c.2,0,.33.09.29.37l-.11.7c-.04.2-.13.37-.44.37h-5.65l-.53,3.09c-.06.29-.09.53-.09.75,0,.83.46,1.16,2.01,1.16h3.5c.18,0,.26.04.22.22l-.17.9c-.02.11-.04.22-.22.26-.53.06-2.52.13-3.61.13-2.1,0-3.39-.87-3.39-2.65,0-.24.02-.5.07-.77l1.23-7.09c.48-2.71,1.95-3.42,4.53-3.42,2.08,0,3.07.07,3.57.17.13.02.18.07.15.26l-.17.86c-.02.19-.11.22-.24.22h-3.55c-1.95,0-2.38.51-2.61,1.91"/>
  <path class="cls-1" d="M174.75,54.44c.26,0,.31.2.27.37l-1.64,9.39c-.04.2-.22.37-.42.37h-.86c-.22,0-.31-.19-.28-.37l.05-.33c-1.1.57-1.97.83-3.05.83-1.58,0-2.69-.98-2.69-2.91,0-.35.04-.72.11-1.12l1.03-5.85c.06-.27.24-.37.44-.37h.88c.22,0,.33.13.29.37l-1.07,6.06c-.07.41-.11.75-.11,1.05,0,1.03.5,1.36,1.71,1.36.77,0,1.69-.26,2.61-.68l1.36-7.79c.04-.2.13-.37.44-.37h.9Z"/>
  <path class="cls-1" d="M184.81,54.88l-3.83,8.36c-.53,1.16-1.31,1.46-2.04,1.46s-1.4-.29-1.53-1.46l-.88-8.36c-.04-.33.13-.44.35-.44h.94c.15,0,.28.11.29.35l.64,7.99c.04.46.17.57.35.57.17,0,.33-.11.53-.57l3.48-7.99c.11-.24.2-.35.48-.35h1.03c.15,0,.24.09.24.22,0,.07-.02.15-.05.22"/>
  <path class="cls-1" d="M192.78,54.74c.33.07.35.18.31.42l-1.58,9.04c-.04.2-.13.37-.42.37h-.74c-.28,0-.31-.15-.28-.41l.09-.57c-1.09.77-1.73,1.11-2.96,1.11-1.56,0-2.87-1-2.87-3.26,0-.35.04-.72.11-1.1l.33-1.82c.57-3.18,2.58-4.2,4.79-4.2,1.1,0,2.28.18,3.22.42M189.56,55.68c-1.9,0-2.85,1.05-3.2,3l-.33,1.9c-.05.28-.07.57-.07.85,0,1.42.72,1.92,1.6,1.92s1.66-.39,2.67-1.07l1.12-6.4c-.5-.09-1.01-.18-1.79-.18"/>
  <path class="cls-1" d="M197.36,50.72c.2,0,.31.09.26.35l-2.3,13.12c-.04.2-.11.37-.41.37h-.96c-.2,0-.29-.19-.26-.37l2.3-13.12c.04-.2.13-.35.4-.35h.96Z"/>
  <path class="cls-1" d="M206.08,50.72h.94c.2,0,.29.09.26.35l-2.26,12.89c-.04.24-.13.37-.46.42-1.18.22-2.32.31-3.44.31-2.25,0-3.33-1.38-3.33-3.39,0-.37.04-.76.11-1.16l.24-1.33c.57-3.17,2.12-4.51,4.8-4.51.57,0,1.44.06,2.12.18l.61-3.42c.06-.26.22-.35.42-.35M202.69,55.73c-1.8,0-2.61,1.31-2.95,3.09l-.24,1.33c-.07.44-.13.85-.13,1.19,0,1.25.55,1.93,1.97,1.93.63,0,1.53-.06,2.17-.11l1.29-7.31c-.59-.11-1.53-.13-2.12-.13"/>
  <path class="cls-1" d="M215.79,58.8l-.24,1.4c-.48,2.8-1.99,4.49-4.9,4.49-2.21,0-3.39-1.44-3.39-3.48,0-.33.04-.66.09-1.01l.24-1.4c.52-2.98,2.14-4.49,4.88-4.49,2.26,0,3.41,1.44,3.41,3.46,0,.33-.04.68-.09,1.03M212.24,55.73c-1.6,0-2.71,1.2-3.02,3.07l-.24,1.4c-.07.4-.11.76-.11,1.09,0,1.31.59,1.99,2.03,1.99,1.62,0,2.72-1.27,3.03-3.07l.24-1.4c.07-.39.09-.74.09-1.05,0-1.33-.59-2.02-2.02-2.02"/>
  <path class="cls-1" d="M160.39,85.54l-.13.81c-.02.17-.04.22-.24.26-.5.08-1.88.17-3.61.17-1.82,0-3.37-.46-3.37-2.61,0-.31.02-.64.09-1.03l1.71-9.79c.04-.2.11-.37.44-.37h.94c.22,0,.33.18.29.37l-1.75,10.01c-.06.3-.09.59-.09.81,0,.83.46,1.11,2.01,1.11h3.46c.15,0,.24.09.24.22v.06Z"/>
  <path class="cls-1" d="M169.72,80.88l-.24,1.4c-.48,2.8-1.99,4.49-4.9,4.49-2.21,0-3.39-1.44-3.39-3.48,0-.33.04-.66.09-1.01l.24-1.4c.52-2.98,2.14-4.49,4.88-4.49,2.26,0,3.4,1.44,3.4,3.46,0,.33-.04.68-.09,1.03M166.17,77.81c-1.6,0-2.71,1.2-3.02,3.07l-.24,1.4c-.07.4-.11.75-.11,1.08,0,1.31.59,1.99,2.02,1.99,1.62,0,2.72-1.27,3.04-3.07l.24-1.4c.07-.39.09-.74.09-1.05,0-1.32-.59-2.02-2.02-2.02"/>
  <path class="cls-1" d="M179.03,72.8h.94c.2,0,.29.09.26.35l-2.26,12.88c-.04.24-.13.37-.46.42-1.18.22-2.32.31-3.44.31-2.25,0-3.33-1.38-3.33-3.39,0-.37.04-.76.11-1.16l.24-1.32c.57-3.17,2.12-4.51,4.8-4.51.57,0,1.44.06,2.12.19l.61-3.42c.06-.26.22-.35.42-.35M175.65,77.81c-1.8,0-2.61,1.31-2.95,3.09l-.24,1.32c-.07.44-.13.85-.13,1.2,0,1.25.55,1.93,1.97,1.93.63,0,1.53-.06,2.17-.11l1.29-7.31c-.59-.11-1.53-.13-2.12-.13"/>
  <path class="cls-1" d="M183.12,76.52c.22,0,.35.07.29.37l-1.64,9.39c-.04.2-.13.37-.44.37h-.88c-.26,0-.33-.18-.29-.37l1.64-9.39c.05-.33.24-.37.44-.37h.88ZM183.83,72.69c.26,0,.33.11.29.37l-.26,1.47c-.05.26-.15.37-.44.37h-.94c-.28,0-.33-.19-.29-.37l.26-1.47c.04-.2.16-.37.44-.37h.94Z"/>
  <path class="cls-1" d="M100.05,30.58l-1.64,9.53c-.16.86-1.01,1.56-1.87,1.56h-15.77c-2.81,0-3.9.94-4.45,3.9l-1.01,5.7h19.21c.78,0,1.33.55,1.33,1.33v.24l-1.64,9.21c-.16.86-.94,1.56-1.8,1.56h-19.21l-1.17,6.48c-.08.62-.16,1.09-.16,1.56,0,1.8.94,2.34,3.2,2.34h15.77c.78,0,1.33.55,1.33,1.33v.24l-1.72,9.53c-.16.94-.78,1.4-1.79,1.56-3.04.39-7.81.94-15.38.94-9.13,0-17.49-3.28-17.49-13.51,0-1.25.16-2.58.39-3.98l4.29-24.52c2.73-15.77,12.1-17.49,23.11-17.49,7.57,0,12.34.55,15.22.94.86.08,1.25.47,1.25,1.25v.31Z"/>
  <path class="cls-1" d="M133.31,75.56l-1.72,9.52c-.16.94-.78,1.41-1.8,1.56-2.96.55-8.2.94-12.34.94-8.82,0-17.49-2.89-17.49-13.43,0-1.25.16-2.58.39-4.06l6.95-39.66c.16-.86,1.09-1.56,1.95-1.56h12.73c.78,0,1.25.54,1.25,1.25v.31l-6.95,39.66c-.08.55-.16,1.02-.16,1.48,0,1.8.94,2.42,3.2,2.42h12.65c.78,0,1.33.55,1.33,1.33v.23Z"/>
</svg>