<?xml version="1.0" encoding="UTF-8"?>
<svg id="Camada_1" xmlns="http://www.w3.org/2000/svg" viewBox="0 0 436.06 110">
  <defs>
    <style>
      .cls-1 {
        fill: #fff;
      }
    </style>
  </defs>
  <path class="cls-1" d="M285.12,27.74c.24.04.3.09.26.32l-.13.8c-.04.22-.09.34-.41.3-.82-.06-2.13-.11-3.21-.11-1.51,0-3.1.26-3.1,1.9,0,.9.43,1.34,1.66,2.16l1.53,1.03c1.73,1.16,2.35,2.14,2.35,3.51,0,2.63-2.22,3.99-5.2,3.99-1.03,0-2.37-.13-3.17-.26-.22-.04-.34-.11-.3-.34l.13-.75c.04-.26.11-.33.43-.3.84.08,2.2.11,3.06.11,2.01,0,3.26-.69,3.26-2.46,0-.9-.48-1.34-1.79-2.24l-1.62-1.1c-1.27-.86-2.03-1.92-2.03-3.26,0-2.59,2.26-3.53,4.79-3.53,1.1,0,2.8.11,3.49.22"/>
  <path class="cls-1" d="M294.06,35.71l-.15.78c-.06.24-.13.41-.41.41h-6.28l-.04.22c-.07.43-.11.8-.11,1.14,0,1.4.88,2,2.31,2,1.08,0,2.35-.13,3.23-.26.28-.04.39.02.36.26l-.11.63c-.04.26-.13.37-.45.43-1.1.2-2.01.32-3.26.32-1.85,0-3.68-.93-3.68-3.45,0-.36.04-.75.11-1.16l.24-1.31c.56-2.97,2.3-4.61,4.94-4.61,2.31,0,3.41,1.51,3.41,3.47,0,.35-.04.73-.11,1.12M290.52,32.55c-1.62,0-2.7,1.29-3.04,3l-.02.09h4.94l.02-.09c.07-.37.11-.73.11-1.03,0-1.32-.69-1.98-2.01-1.98"/>
  <path class="cls-1" d="M296.46,41.13c-.04.21-.24.37-.45.37h-.91c-.2,0-.32-.19-.28-.37l1.66-9.51c.04-.21.22-.37.43-.37h.88c.22,0,.32.19.28.37l-.07.43c1.01-.78,1.9-.93,2.76-.93h.04c.32,0,.37.13.34.34l-.13.78c-.04.21-.19.32-.45.32h-.06c-1.06,0-1.75.19-2.67.76l-1.36,7.81Z"/>
  <path class="cls-1" d="M310.24,31.7l-3.88,8.47c-.54,1.18-1.32,1.47-2.07,1.47s-1.42-.3-1.55-1.47l-.89-8.47c-.04-.33.13-.45.35-.45h.95c.15,0,.28.11.3.36l.65,8.09c.04.47.17.58.36.58.17,0,.33-.11.54-.58l3.52-8.09c.11-.24.2-.36.48-.36h1.04c.15,0,.24.09.24.22,0,.07-.02.15-.06.22"/>
  <path class="cls-1" d="M313.31,31.25c.23,0,.35.07.3.37l-1.66,9.51c-.04.21-.13.37-.45.37h-.9c-.26,0-.34-.19-.3-.37l1.66-9.51c.06-.34.24-.37.45-.37h.89ZM314.04,27.37c.26,0,.33.11.3.37l-.26,1.49c-.06.26-.15.37-.45.37h-.95c-.28,0-.34-.19-.3-.37l.26-1.49c.04-.2.17-.37.45-.37h.95Z"/>
  <path class="cls-1" d="M322.15,31.73l-.11.67c-.04.19-.22.28-.39.28h-.06c-.8-.09-1.36-.13-2.27-.13-1.49,0-2.57,1.17-2.89,3.1l-.24,1.45c-.08.43-.11.78-.11,1.12,0,1.42.67,1.98,1.88,1.98.92,0,1.53-.04,2.35-.13h.06c.15,0,.28.07.28.22v.06l-.11.67c-.04.26-.15.35-.45.41-.63.11-1.49.2-2.37.2-2.18,0-3.26-1.51-3.26-3.51,0-.34.04-.67.09-1.03l.24-1.45c.5-3.02,2.24-4.53,4.77-4.53.88,0,1.7.09,2.29.21.22.04.32.11.32.28,0,.04-.02.07-.02.13M318.61,42.38l-2.54,2.35c-.21.19-.26.28-.47.28h-1.01c-.09,0-.15-.04-.15-.11,0-.06.04-.13.11-.21l2.22-2.31c.21-.21.28-.28.5-.28h1.23c.11,0,.19.04.19.11,0,.04-.02.09-.09.17"/>
  <path class="cls-1" d="M330.41,35.67l-.24,1.42c-.48,2.83-2.01,4.55-4.96,4.55-2.24,0-3.43-1.45-3.43-3.52,0-.33.04-.67.09-1.03l.24-1.42c.52-3.02,2.16-4.55,4.94-4.55,2.29,0,3.45,1.46,3.45,3.51,0,.33-.04.69-.09,1.04M326.81,32.55c-1.62,0-2.74,1.21-3.06,3.11l-.24,1.42c-.07.41-.11.76-.11,1.1,0,1.32.6,2.01,2.05,2.01,1.64,0,2.76-1.29,3.08-3.11l.24-1.42c.08-.39.09-.75.09-1.06,0-1.34-.6-2.05-2.05-2.05"/>
  <path class="cls-1" d="M346.39,28c.04-.19.11-.35.39-.35h.99c.19,0,.28.13.28.28v.07l-2.29,12.96c-.06.3-.15.54-.64.54h-1.08c-.39,0-.47-.11-.54-.3l-3.92-10.95-.04-.06s-.04.02-.04.06l-1.92,10.89c-.04.19-.21.36-.39.36h-1.08c-.13,0-.22-.06-.19-.22l2.31-13.11c.05-.3.2-.52.63-.52h.91c.52,0,.6.09.69.37l3.88,10.8c.04.11.05.15.07.15s.04-.04.06-.15l1.9-10.82Z"/>
  <path class="cls-1" d="M356.56,31.55c.34.07.36.19.32.43l-1.6,9.16c-.04.21-.13.37-.43.37h-.75c-.28,0-.32-.15-.28-.41l.09-.58c-1.1.78-1.75,1.12-3,1.12-1.59,0-2.91-1.01-2.91-3.3,0-.36.04-.73.11-1.12l.34-1.85c.58-3.23,2.61-4.25,4.85-4.25,1.12,0,2.31.19,3.26.43M353.3,32.5c-1.92,0-2.89,1.06-3.25,3.04l-.34,1.92c-.06.28-.07.58-.07.86,0,1.44.73,1.94,1.62,1.94s1.68-.39,2.7-1.08l1.14-6.49c-.5-.09-1.03-.19-1.81-.19"/>
  <path class="cls-1" d="M359.56,35.65l-.24,1.46c-.07.43-.11.78-.11,1.12,0,1.42.67,1.98,1.88,1.98.91,0,1.53-.04,2.35-.13.3-.06.37.07.34.28l-.11.67c-.04.26-.15.35-.45.41-.62.11-1.49.2-2.37.2-2.18,0-3.26-1.51-3.26-3.5,0-.34.04-.67.1-1.03l.24-1.46c.5-3.02,2.22-4.53,4.77-4.53.86,0,1.7.09,2.29.21.34.06.34.17.3.41l-.11.67c-.04.2-.11.34-.45.28-.8-.09-1.36-.13-2.28-.13-1.49,0-2.57,1.17-2.89,3.1"/>
  <path class="cls-1" d="M368.45,31.25c.23,0,.35.07.3.37l-1.66,9.51c-.04.21-.13.37-.45.37h-.9c-.26,0-.34-.19-.3-.37l1.66-9.51c.06-.34.24-.37.45-.37h.89ZM369.18,27.37c.26,0,.33.11.3.37l-.26,1.49c-.06.26-.15.37-.45.37h-.95c-.28,0-.34-.19-.3-.37l.26-1.49c.04-.2.17-.37.45-.37h.95Z"/>
  <path class="cls-1" d="M378.28,35.67l-.24,1.42c-.48,2.83-2.01,4.55-4.96,4.55-2.24,0-3.43-1.45-3.43-3.52,0-.33.04-.67.1-1.03l.24-1.42c.52-3.02,2.16-4.55,4.94-4.55,2.29,0,3.45,1.46,3.45,3.51,0,.33-.04.69-.09,1.04M374.68,32.55c-1.62,0-2.74,1.21-3.06,3.11l-.24,1.42c-.07.41-.11.76-.11,1.1,0,1.32.6,2.01,2.05,2.01,1.64,0,2.76-1.29,3.08-3.11l.24-1.42c.08-.39.09-.75.09-1.06,0-1.34-.6-2.05-2.05-2.05"/>
  <path class="cls-1" d="M387.97,35l-1.08,6.14c-.04.21-.24.37-.45.37h-.9c-.22,0-.34-.19-.3-.37l1.08-6.14c.06-.35.09-.73.09-1.02,0-.9-.37-1.42-1.74-1.42-.71,0-1.44.15-2.63.71l-1.38,7.87c-.04.19-.24.37-.45.37h-.92c-.22,0-.32-.21-.28-.37l1.66-9.51c.04-.21.15-.37.49-.37h.78c.3,0,.39.11.36.37l-.06.39c.9-.5,1.73-.89,3-.89,1.99,0,2.8,1.27,2.8,2.87,0,.32-.04.69-.09,1.01"/>
  <path class="cls-1" d="M397.53,31.55c.34.07.35.19.32.43l-1.61,9.16c-.04.21-.13.37-.43.37h-.75c-.28,0-.32-.15-.28-.41l.09-.58c-1.1.78-1.75,1.12-3,1.12-1.59,0-2.91-1.01-2.91-3.3,0-.36.04-.73.11-1.12l.34-1.85c.58-3.23,2.61-4.25,4.85-4.25,1.12,0,2.31.19,3.26.43M394.27,32.5c-1.92,0-2.89,1.06-3.25,3.04l-.34,1.92c-.06.28-.07.58-.07.86,0,1.44.73,1.94,1.62,1.94s1.68-.39,2.7-1.08l1.14-6.49c-.5-.09-1.03-.19-1.81-.19"/>
  <path class="cls-1" d="M402.17,27.48c.21,0,.32.09.26.35l-2.33,13.3c-.04.21-.11.37-.41.37h-.97c-.21,0-.3-.19-.26-.37l2.33-13.3c.04-.21.13-.35.41-.35h.97Z"/>
  <path class="cls-1" d="M280.34,49.85h.95c.2,0,.3.09.26.35l-2.29,13.06c-.04.24-.13.37-.47.43-1.19.22-2.35.32-3.49.32-2.28,0-3.38-1.4-3.38-3.43,0-.37.04-.76.11-1.17l.24-1.34c.58-3.21,2.14-4.57,4.87-4.57.58,0,1.45.06,2.14.19l.62-3.47c.05-.26.22-.35.43-.35M276.91,54.92c-1.83,0-2.65,1.32-2.98,3.13l-.24,1.34c-.07.45-.13.86-.13,1.21,0,1.27.56,1.96,1.99,1.96.64,0,1.55-.06,2.2-.11l1.31-7.4c-.6-.11-1.55-.13-2.15-.13"/>
  <path class="cls-1" d="M290.17,58.07l-.15.78c-.06.24-.13.41-.41.41h-6.28l-.04.22c-.07.43-.11.8-.11,1.14,0,1.4.88,2,2.31,2,1.08,0,2.35-.13,3.23-.26.28-.04.39.02.36.26l-.11.64c-.04.26-.13.37-.45.43-1.1.2-2.01.32-3.26.32-1.85,0-3.68-.93-3.68-3.45,0-.35.04-.74.11-1.16l.24-1.31c.56-2.97,2.3-4.61,4.94-4.61,2.31,0,3.41,1.51,3.41,3.47,0,.35-.04.73-.11,1.12M286.62,54.92c-1.62,0-2.7,1.29-3.04,3l-.02.09h4.94l.02-.09c.07-.37.11-.73.11-1.03,0-1.32-.69-1.98-2.01-1.98"/>
  <path class="cls-1" d="M305.19,63.88h-1.12c-.17,0-.24-.13-.26-.28l-.47-4.29h-4.83l-1.94,4.29c-.06.15-.17.28-.39.28h-1.14c-.17,0-.26-.09-.26-.24,0-.06,0-.11.04-.19l5.59-12.14c.52-1.14,1.33-1.42,2.15-1.42.76,0,1.51.26,1.64,1.4l1.31,12.16v.07c0,.21-.09.35-.32.35M302.63,51.7c-.02-.21-.11-.34-.3-.34-.21,0-.34.13-.43.34l-2.78,6.14h4.12l-.62-6.14Z"/>
  <path class="cls-1" d="M315.68,58.09l-.24,1.34c-.58,3.17-2.01,4.57-4.87,4.57-.58,0-1.46-.07-2.15-.21l-.6,3.38c-.04.19-.22.35-.43.35h-.95c-.17,0-.26-.11-.26-.28v-.07l2.26-12.83c.04-.26.13-.35.47-.43,1.03-.24,2.37-.43,3.51-.43,2.28,0,3.38,1.38,3.38,3.41,0,.37-.04.78-.11,1.19M312.18,54.87c-.78,0-1.7.09-2.22.19l-1.29,7.38c.6.11,1.55.19,2.15.19,1.71,0,2.63-1.27,2.98-3.19l.24-1.34c.09-.49.13-.91.13-1.29,0-1.27-.54-1.94-1.99-1.94"/>
  <path class="cls-1" d="M318.08,63.5c-.04.21-.24.37-.45.37h-.91c-.2,0-.32-.19-.28-.37l1.66-9.51c.04-.21.22-.37.43-.37h.88c.22,0,.32.19.28.37l-.07.43c1.01-.78,1.9-.93,2.76-.93h.04c.32,0,.37.13.33.34l-.13.78c-.04.21-.19.32-.45.32h-.06c-1.06,0-1.75.19-2.67.76l-1.36,7.81Z"/>
  <path class="cls-1" d="M330.78,58.07l-.15.78c-.06.24-.13.41-.41.41h-6.28l-.04.22c-.07.43-.11.8-.11,1.14,0,1.4.88,2,2.31,2,1.08,0,2.35-.13,3.23-.26.28-.04.39.02.35.26l-.11.64c-.04.26-.13.37-.45.43-1.1.2-2.01.32-3.26.32-1.85,0-3.68-.93-3.68-3.45,0-.35.04-.74.11-1.16l.24-1.31c.56-2.97,2.3-4.61,4.94-4.61,2.31,0,3.41,1.51,3.41,3.47,0,.35-.04.73-.11,1.12M327.24,54.92c-1.62,0-2.7,1.29-3.04,3l-.02.09h4.94l.02-.09c.07-.37.11-.73.11-1.03,0-1.32-.69-1.98-2.01-1.98"/>
  <path class="cls-1" d="M340.48,57.37l-1.08,6.14c-.04.21-.24.37-.45.37h-.9c-.22,0-.34-.19-.3-.37l1.08-6.14c.06-.35.09-.73.09-1.02,0-.9-.37-1.42-1.74-1.42-.71,0-1.44.15-2.63.71l-1.38,7.87c-.04.19-.24.37-.45.37h-.92c-.22,0-.32-.21-.28-.37l1.66-9.51c.04-.21.15-.37.49-.37h.78c.3,0,.39.11.36.37l-.06.39c.9-.5,1.73-.9,3-.9,1.99,0,2.8,1.27,2.8,2.87,0,.32-.04.69-.09,1.01"/>
  <path class="cls-1" d="M350.11,49.85h.95c.2,0,.3.09.26.35l-2.29,13.06c-.04.24-.13.37-.47.43-1.19.22-2.35.32-3.49.32-2.28,0-3.38-1.4-3.38-3.43,0-.37.04-.76.11-1.17l.24-1.34c.58-3.21,2.15-4.57,4.87-4.57.58,0,1.45.06,2.14.19l.62-3.47c.06-.26.22-.35.43-.35M346.68,54.92c-1.83,0-2.65,1.32-2.98,3.13l-.24,1.34c-.07.45-.13.86-.13,1.21,0,1.27.56,1.96,1.99,1.96.64,0,1.55-.06,2.2-.11l1.31-7.4c-.6-.11-1.55-.13-2.15-.13"/>
  <path class="cls-1" d="M354.24,53.62c.23,0,.36.08.3.37l-1.66,9.51c-.04.21-.13.37-.45.37h-.9c-.26,0-.34-.19-.3-.37l1.66-9.51c.06-.34.24-.37.45-.37h.89ZM354.97,49.74c.26,0,.33.11.3.37l-.26,1.49c-.06.26-.15.37-.45.37h-.95c-.28,0-.34-.19-.3-.37l.26-1.49c.04-.2.17-.37.45-.37h.95Z"/>
  <path class="cls-1" d="M362.51,56.08l-5.84,6.06c-.09.09-.13.17-.13.22,0,.07.08.13.19.13h4.76c.32,0,.34.19.3.37l-.11.63c-.06.28-.11.37-.43.37h-4.72c-1.12,0-1.62-.6-1.62-1.31,0-.37.11-.78.43-1.1l5.95-6.17c.09-.09.11-.13.11-.21s-.06-.09-.19-.09h-4.59c-.21,0-.34-.11-.3-.37l.11-.63c.05-.3.22-.37.43-.37h4.66c1.06,0,1.49.6,1.49,1.29,0,.39-.15.8-.5,1.17"/>
  <path class="cls-1" d="M371.96,53.92c.34.07.36.19.32.43l-1.6,9.16c-.04.2-.13.37-.43.37h-.75c-.28,0-.32-.15-.28-.41l.09-.58c-1.1.78-1.75,1.12-3,1.12-1.59,0-2.91-1.01-2.91-3.3,0-.35.04-.73.11-1.12l.34-1.85c.58-3.23,2.61-4.25,4.85-4.25,1.12,0,2.31.19,3.26.43M368.69,54.87c-1.92,0-2.89,1.06-3.25,3.04l-.34,1.92c-.06.28-.07.58-.07.86,0,1.44.73,1.94,1.62,1.94s1.68-.39,2.7-1.08l1.14-6.49c-.5-.09-1.03-.19-1.81-.19"/>
  <path class="cls-1" d="M373.31,58.06c.6-3.36,2.16-4.57,4.96-4.57,1.1,0,2.42.22,3.26.43.36.07.36.19.32.43l-1.68,9.51c-.5,2.89-1.75,3.69-4.44,3.69-1.42,0-2.61-.19-3.11-.34-.3-.08-.34-.17-.3-.39l.09-.54c.04-.24.13-.34.45-.3.63.07,2.13.22,3.12.22,1.66,0,2.26-.54,2.54-2.24l.04-.22c-.48.11-1.57.26-2.13.26-2.01,0-3.47-.99-3.47-3.34,0-.37.04-.8.11-1.25l.24-1.36ZM378.03,54.87c-1.74,0-2.69,1.01-3.08,3.19l-.24,1.36c-.09.5-.13.95-.13,1.32,0,1.42.67,1.88,2.09,1.88.52,0,1.53-.07,2.13-.2l1.29-7.35c-.5-.09-1.27-.21-2.05-.21"/>
  <path class="cls-1" d="M391.19,58.07l-.15.78c-.06.24-.13.41-.41.41h-6.28l-.04.22c-.07.43-.11.8-.11,1.14,0,1.4.88,2,2.31,2,1.08,0,2.35-.13,3.23-.26.28-.04.39.02.36.26l-.11.64c-.04.26-.13.37-.45.43-1.1.2-2.01.32-3.26.32-1.85,0-3.68-.93-3.68-3.45,0-.35.04-.74.11-1.16l.24-1.31c.56-2.97,2.3-4.61,4.94-4.61,2.31,0,3.41,1.51,3.41,3.47,0,.35-.04.73-.11,1.12M387.65,54.92c-1.62,0-2.7,1.29-3.04,3l-.02.09h4.94l.02-.09c.07-.37.11-.73.11-1.03,0-1.32-.69-1.98-2.01-1.98"/>
  <path class="cls-1" d="M405.44,56.99l-1.14,6.51c-.04.2-.24.37-.45.37h-.89c-.22,0-.33-.19-.3-.37l1.14-6.51c.05-.3.07-.56.07-.78,0-.99-.48-1.29-1.47-1.29-.58,0-1.44.11-2.27.54.07.41.02,1.16-.04,1.49l-1.14,6.55c-.04.19-.21.37-.41.37h-.99c-.22,0-.28-.2-.24-.37l1.14-6.55c.08-.41.13-.71.13-1.01,0-.78-.48-1.03-1.12-1.03-.88,0-1.99.49-2.48.71l-1.38,7.87c-.04.19-.2.37-.41.37h-.99c-.22,0-.28-.19-.24-.37l1.66-9.51c.04-.21.13-.37.43-.37h.9c.3,0,.32.19.28.37l-.06.35c.93-.56,1.79-.86,2.72-.86.8,0,1.53.36,1.86.84,1.18-.65,2.03-.84,3.06-.84,1.87,0,2.72,1.08,2.72,2.7,0,.28-.04.5-.09.8"/>
  <path class="cls-1" d="M271.54,72.39c.24,0,.32.11.28.35l-2.31,13.13c-.04.26-.15.37-.41.37h-1.03c-.24,0-.3-.19-.26-.37l2.31-13.13c.04-.19.11-.35.39-.35h1.03Z"/>
  <path class="cls-1" d="M280.87,79.73l-1.08,6.14c-.04.21-.24.37-.45.37h-.9c-.22,0-.34-.19-.3-.37l1.08-6.14c.06-.35.09-.73.09-1.02,0-.9-.37-1.42-1.74-1.42-.71,0-1.44.15-2.63.71l-1.38,7.87c-.04.19-.24.37-.45.37h-.92c-.22,0-.32-.21-.28-.37l1.66-9.51c.04-.21.15-.37.49-.37h.78c.3,0,.39.11.36.37l-.06.39c.9-.5,1.73-.9,3-.9,1.99,0,2.8,1.27,2.8,2.87,0,.32-.04.69-.09,1.01"/>
  <path class="cls-1" d="M290.5,72.22h.95c.2,0,.3.09.26.35l-2.29,13.06c-.04.24-.13.37-.47.43-1.19.22-2.35.32-3.49.32-2.28,0-3.38-1.4-3.38-3.43,0-.37.04-.76.11-1.17l.24-1.34c.58-3.21,2.15-4.57,4.87-4.57.58,0,1.45.06,2.14.19l.62-3.47c.06-.26.22-.35.43-.35M287.07,77.29c-1.83,0-2.65,1.32-2.98,3.13l-.24,1.34c-.07.45-.13.86-.13,1.21,0,1.27.56,1.96,1.99,1.96.64,0,1.55-.06,2.2-.11l1.31-7.4c-.6-.11-1.55-.13-2.15-.13"/>
  <path class="cls-1" d="M300.66,75.99c.26,0,.32.21.28.37l-1.66,9.51c-.04.21-.22.37-.43.37h-.88c-.22,0-.32-.19-.28-.37l.06-.34c-1.12.58-2,.84-3.1.84-1.6,0-2.72-.99-2.72-2.95,0-.35.04-.73.11-1.14l1.04-5.93c.06-.28.24-.37.45-.37h.9c.22,0,.34.13.3.37l-1.08,6.14c-.07.41-.11.76-.11,1.06,0,1.05.5,1.38,1.74,1.38.78,0,1.72-.26,2.65-.69l1.38-7.89c.04-.2.13-.37.45-.37h.92Z"/>
  <path class="cls-1" d="M308.86,76.1c.28.06.32.11.28.37l-.09.62c-.04.22-.15.35-.43.32-.63-.08-1.7-.15-2.74-.15-.86,0-1.96.24-1.96,1.32,0,.47.37.82,1.01,1.23l1.66,1.1c1.29.86,1.66,1.51,1.66,2.5,0,2.2-1.96,2.96-4.01,2.96-.78,0-2.09-.07-2.91-.28-.19-.04-.35-.17-.32-.37l.11-.65c.06-.24.15-.32.47-.28.88.11,2.22.2,2.89.2,1.1,0,2.11-.39,2.11-1.58,0-.43-.22-.76-1.08-1.33l-1.68-1.1c-1.03-.67-1.57-1.42-1.57-2.43,0-2.07,2-2.7,3.86-2.7,1.44,0,1.94.07,2.74.24"/>
  <path class="cls-1" d="M315.85,75.99c.22,0,.33.11.3.37l-.11.63c-.06.34-.23.37-.43.37h-2.01l-1.16,6.55c-.04.22-.06.39-.06.54,0,.54.26.59.86.59h1.14c.21,0,.3.06.26.26l-.11.65c-.04.17-.13.28-.39.32-.37.06-.82.09-1.18.09-1.27,0-2.24-.49-2.24-1.77,0-.24.02-.43.07-.73l1.16-6.51-1.77-.2c-.19-.02-.34-.15-.3-.34l.09-.5c.06-.26.2-.34.41-.34h1.81l.3-1.83c.04-.19.2-.34.41-.37l.99-.15c.26-.04.32.13.28.32l-.34,2.03h2.02Z"/>
  <path class="cls-1" d="M317.43,85.87c-.04.21-.24.37-.45.37h-.92c-.2,0-.32-.19-.28-.37l1.66-9.51c.04-.2.22-.37.43-.37h.88c.22,0,.32.19.28.37l-.07.43c1.01-.78,1.9-.93,2.76-.93h.04c.32,0,.37.13.34.33l-.13.78c-.04.21-.19.32-.45.32h-.06c-1.06,0-1.75.18-2.67.76l-1.36,7.81Z"/>
  <path class="cls-1" d="M324.89,75.99c.23,0,.35.08.3.37l-1.66,9.51c-.04.21-.13.37-.45.37h-.9c-.26,0-.34-.19-.3-.37l1.66-9.51c.06-.34.24-.37.45-.37h.89ZM325.62,72.11c.26,0,.33.11.3.37l-.26,1.49c-.06.26-.15.37-.45.37h-.95c-.28,0-.34-.19-.3-.37l.26-1.49c.04-.2.17-.37.45-.37h.95Z"/>
  <path class="cls-1" d="M334.4,76.28c.34.08.36.19.32.43l-1.6,9.16c-.04.21-.13.37-.43.37h-.75c-.28,0-.32-.15-.28-.41l.09-.58c-1.1.78-1.75,1.12-3,1.12-1.59,0-2.91-1.01-2.91-3.3,0-.36.04-.73.11-1.12l.34-1.85c.58-3.23,2.61-4.25,4.85-4.25,1.12,0,2.31.19,3.26.43M331.14,77.24c-1.92,0-2.89,1.06-3.25,3.04l-.34,1.92c-.06.28-.07.58-.07.86,0,1.44.73,1.94,1.62,1.94s1.68-.39,2.7-1.08l1.14-6.49c-.5-.09-1.03-.19-1.81-.19"/>
  <path class="cls-1" d="M339.04,72.22c.21,0,.32.09.26.35l-2.33,13.3c-.04.21-.11.37-.41.37h-.97c-.21,0-.3-.19-.26-.37l2.33-13.3c.04-.2.13-.35.41-.35h.97Z"/>
  <path class="cls-1" d="M78.14,30.28l-1.74,9.89c-.16.87-.79,1.5-1.66,1.5h-.16c-3.16-.24-12.1-1.03-17.79-1.03-2.21,0-4.51.71-4.51,3.32,0,1.11.79,1.82,3.48,3.4l9.65,5.69c5.69,3.32,7.91,7.67,7.91,13.21,0,14.79-12.42,20.8-25.86,20.8-6.48,0-11.54-.87-15.58-2.06-.71-.24-1.35-.63-1.35-1.35v-.24l1.66-9.73c.16-.87.87-1.58,1.82-1.58h.16c3.24.32,11.63,1.19,15.82,1.19,3.16,0,5.77-1.11,5.77-4.67,0-1.19-.79-2.06-3.08-3.56l-10.2-6.72c-4.59-3.01-6.8-8.15-6.8-13.05,0-14.24,11.15-18.5,23.72-18.5,6.25,0,14.47,1.03,17.56,1.98.63.24,1.19.55,1.19,1.26v.24Z"/>
  <path class="cls-1" d="M123.06,29.33l-1.66,9.65c-.16.87-1.03,1.58-1.9,1.58h-15.97c-2.85,0-3.96.95-4.51,3.96l-1.03,5.77h19.45c.79,0,1.34.55,1.34,1.34v.24l-1.66,9.33c-.16.87-.95,1.58-1.82,1.58h-19.46l-1.19,6.56c-.08.63-.16,1.11-.16,1.58,0,1.82.95,2.37,3.24,2.37h15.97c.79,0,1.34.55,1.34,1.35v.24l-1.74,9.65c-.16.95-.79,1.42-1.82,1.58-3.08.39-7.91.95-15.58.95-9.25,0-17.72-3.32-17.72-13.68,0-1.27.16-2.61.4-4.03l4.35-24.83c2.77-15.98,12.26-17.72,23.41-17.72,7.67,0,12.5.55,15.42.95.87.08,1.27.47,1.27,1.26v.32Z"/>
  <path class="cls-1" d="M179.13,29.17l-9.49,54.25c-.32,1.58-1.9,2.93-3.48,2.93h-9.81c-1.42,0-2.29-.63-2.93-2.13l-11.71-26.49c-.24-.55-.47-.63-.71-.63s-.4.16-.47.71l-4.75,26.97c-.16.87-1.03,1.58-1.9,1.58h-11.86c-.79,0-1.34-.55-1.34-1.34v-.24l9.49-54.25c.32-1.58,1.9-2.93,3.48-2.93h9.65c1.5,0,2.14.95,2.77,2.29l12.02,27.28c.24.55.32.71.55.71s.47-.08.55-.71l4.9-28c.16-.87,1.03-1.58,1.9-1.58h11.86c.79,0,1.27.55,1.27,1.27v.32Z"/>
  <path class="cls-1" d="M224.14,86.35h-13.44c-.79,0-1.34-.71-1.34-1.5l-.24-10.99h-14.08l-4.19,10.99c-.32.79-1.03,1.5-1.82,1.5h-14c-.71,0-1.11-.39-1.11-1.03,0-.16.08-.4.16-.63l19.14-48.4c3.08-7.83,9.33-9.41,16.85-9.41s13.21,1.58,13.52,9.41l2.06,48.4v.08c0,.87-.63,1.58-1.5,1.58M208.71,41.11c0-.71,0-1.11-.71-1.11s-.79.39-1.03,1.11l-7.43,20.09h9.49l-.32-20.09Z"/>
  <path class="cls-1" d="M256.65,29.09c.16-1.03-.48-1.5-1.35-1.5h-12.97c-.87,0-1.66.63-1.82,1.5l-2.47,14.04,17.58-8.24,1.02-5.8Z"/>
  <path class="cls-1" d="M236.94,49.42l-6.23,35.35c-.16.79.32,1.58,1.27,1.58h12.97c1.19,0,1.74-.71,1.9-1.58l7.68-43.59-17.58,8.24Z"/>
</svg>