<?xml version="1.0" encoding="UTF-8"?>
<svg id="Camada_1" xmlns="http://www.w3.org/2000/svg" viewBox="0 0 305.17 110">
  <defs>
    <style>
      .cls-1 {
        fill: #fff;
      }
    </style>
  </defs>
  <path class="cls-1" d="M181.73,29.81c.15-1-.46-1.47-1.31-1.47h-12.67c-.85,0-1.62.62-1.78,1.47l-2.42,13.71,17.18-8.05,1-5.66Z"/>
  <path class="cls-1" d="M162.47,49.66l-6.08,34.52c-.15.77.31,1.55,1.24,1.55h12.67c1.16,0,1.7-.69,1.85-1.55l7.5-42.57-17.17,8.05Z"/>
  <path class="cls-1" d="M69.69,31.02l-1.7,9.66c-.15.85-.77,1.47-1.62,1.47h-.15c-3.09-.23-11.82-1-17.38-1-2.16,0-4.4.69-4.4,3.24,0,1.08.77,1.78,3.4,3.32l9.42,5.56c5.56,3.24,7.73,7.49,7.73,12.9,0,14.44-12.13,20.31-25.26,20.31-6.33,0-11.28-.85-15.22-2.01-.69-.23-1.31-.62-1.31-1.31v-.23l1.62-9.5c.15-.85.85-1.54,1.78-1.54h.16c3.17.31,11.35,1.16,15.45,1.16,3.09,0,5.64-1.08,5.64-4.56,0-1.16-.77-2.01-3.01-3.48l-9.96-6.56c-4.48-2.94-6.64-7.96-6.64-12.74,0-13.9,10.89-18.07,23.17-18.07,6.1,0,14.14,1,17.15,1.93.62.23,1.16.54,1.16,1.24v.23Z"/>
  <path class="cls-1" d="M113.57,30.09l-1.62,9.42c-.15.85-1,1.54-1.85,1.54h-15.6c-2.78,0-3.86.93-4.4,3.86l-1,5.64h19c.77,0,1.31.54,1.31,1.31v.23l-1.62,9.11c-.15.85-.93,1.54-1.78,1.54h-19l-1.16,6.41c-.08.62-.15,1.08-.15,1.55,0,1.78.93,2.32,3.17,2.32h15.6c.77,0,1.31.54,1.31,1.31v.23l-1.7,9.42c-.15.93-.77,1.39-1.78,1.54-3.01.39-7.73.93-15.22.93-9.04,0-17.3-3.24-17.3-13.36,0-1.24.15-2.55.39-3.94l4.25-24.25c2.7-15.6,11.97-17.3,22.86-17.3,7.49,0,12.2.54,15.06.93.85.08,1.24.46,1.24,1.24v.31Z"/>
  <path class="cls-1" d="M157.75,31.02l-1.7,9.66c-.15.85-.77,1.47-1.62,1.47h-.15c-3.09-.23-11.82-1-17.38-1-2.16,0-4.4.69-4.4,3.24,0,1.08.77,1.78,3.4,3.32l9.42,5.56c5.56,3.24,7.73,7.49,7.73,12.9,0,14.44-12.13,20.31-25.26,20.31-6.33,0-11.28-.85-15.22-2.01-.69-.23-1.31-.62-1.31-1.31v-.23l1.62-9.5c.16-.85.85-1.54,1.78-1.54h.16c3.17.31,11.35,1.16,15.45,1.16,3.09,0,5.64-1.08,5.64-4.56,0-1.16-.77-2.01-3.01-3.48l-9.96-6.56c-4.48-2.94-6.64-7.96-6.64-12.74,0-13.9,10.89-18.07,23.17-18.07,6.1,0,14.13,1,17.15,1.93.62.23,1.16.54,1.16,1.24v.23Z"/>
  <path class="cls-1" d="M209.79,28.5c.24.04.29.09.25.31l-.13.78c-.04.22-.09.33-.4.29-.8-.06-2.07-.11-3.13-.11-1.48,0-3.02.26-3.02,1.86,0,.87.42,1.31,1.62,2.11l1.49,1c1.69,1.13,2.29,2.09,2.29,3.42,0,2.57-2.17,3.9-5.08,3.9-1,0-2.31-.13-3.09-.26-.22-.04-.33-.11-.29-.33l.13-.73c.04-.25.11-.33.42-.29.82.07,2.15.11,2.98.11,1.97,0,3.18-.67,3.18-2.4,0-.87-.47-1.31-1.75-2.18l-1.58-1.07c-1.24-.84-1.98-1.87-1.98-3.19,0-2.53,2.2-3.44,4.68-3.44,1.07,0,2.73.11,3.4.22"/>
  <path class="cls-1" d="M218.53,36.27l-.15.76c-.05.24-.13.4-.4.4h-6.13l-.04.22c-.07.42-.11.78-.11,1.11,0,1.37.85,1.95,2.26,1.95,1.06,0,2.29-.13,3.15-.26.27-.04.38.02.35.26l-.11.62c-.04.26-.13.36-.44.42-1.07.2-1.97.31-3.18.31-1.8,0-3.59-.91-3.59-3.37,0-.35.04-.73.11-1.13l.24-1.27c.55-2.89,2.24-4.5,4.82-4.5,2.26,0,3.33,1.47,3.33,3.38,0,.35-.04.71-.11,1.09M215.07,33.2c-1.58,0-2.64,1.26-2.97,2.93l-.02.09h4.82l.02-.09c.07-.37.11-.71.11-1,0-1.29-.67-1.93-1.97-1.93"/>
  <path class="cls-1" d="M220.88,41.57c-.04.2-.24.36-.44.36h-.89c-.2,0-.31-.18-.28-.36l1.62-9.28c.03-.2.22-.36.42-.36h.85c.22,0,.31.18.27.36l-.07.42c.98-.76,1.86-.91,2.69-.91h.04c.31,0,.36.13.33.33l-.13.76c-.04.2-.18.31-.44.31h-.05c-1.04,0-1.71.18-2.6.75l-1.33,7.63Z"/>
  <path class="cls-1" d="M234.34,32.36l-3.79,8.26c-.53,1.15-1.29,1.44-2.02,1.44s-1.38-.29-1.51-1.44l-.87-8.26c-.04-.33.13-.44.35-.44h.93c.14,0,.27.11.29.35l.64,7.9c.04.45.16.56.35.56.16,0,.33-.11.53-.56l3.44-7.9c.11-.24.2-.35.47-.35h1.02c.15,0,.24.09.24.22,0,.07-.02.15-.05.22"/>
  <path class="cls-1" d="M237.34,31.92c.22,0,.35.07.29.36l-1.62,9.28c-.04.2-.13.36-.44.36h-.87c-.25,0-.33-.18-.29-.36l1.62-9.28c.06-.33.24-.36.44-.36h.87ZM238.05,28.14c.25,0,.33.11.29.36l-.26,1.46c-.05.25-.14.36-.44.36h-.93c-.28,0-.33-.18-.29-.36l.26-1.46c.04-.2.16-.36.44-.36h.93Z"/>
  <path class="cls-1" d="M245.97,32.4l-.11.66c-.04.18-.22.27-.38.27h-.06c-.78-.09-1.33-.13-2.22-.13-1.46,0-2.51,1.15-2.82,3.02l-.24,1.42c-.07.42-.11.76-.11,1.09,0,1.38.66,1.93,1.84,1.93.89,0,1.49-.04,2.29-.13h.06c.15,0,.27.07.27.22v.06l-.11.65c-.04.25-.15.35-.44.4-.62.11-1.46.2-2.31.2-2.13,0-3.19-1.47-3.19-3.42,0-.33.04-.66.09-1l.24-1.42c.49-2.95,2.18-4.42,4.66-4.42.86,0,1.66.09,2.24.2.22.04.31.11.31.27,0,.04-.02.07-.02.13M242.51,42.79l-2.48,2.29c-.2.18-.25.27-.46.27h-.98c-.09,0-.15-.04-.15-.11,0-.06.04-.13.11-.2l2.17-2.26c.2-.2.27-.27.49-.27h1.2c.11,0,.18.04.18.11,0,.04-.02.09-.09.16"/>
  <path class="cls-1" d="M254.04,36.24l-.24,1.38c-.47,2.77-1.96,4.44-4.84,4.44-2.18,0-3.35-1.42-3.35-3.44,0-.33.04-.65.09-1l.24-1.38c.51-2.95,2.11-4.44,4.82-4.44,2.24,0,3.37,1.42,3.37,3.42,0,.33-.04.67-.09,1.02M250.52,33.2c-1.58,0-2.68,1.18-2.98,3.04l-.24,1.38c-.07.4-.11.75-.11,1.07,0,1.29.58,1.97,2,1.97,1.6,0,2.69-1.26,3-3.04l.24-1.38c.07-.38.09-.73.09-1.04,0-1.31-.58-2-2-2"/>
  <path class="cls-1" d="M206.15,50.35c.24.04.29.09.25.31l-.13.78c-.04.22-.09.33-.4.29-.8-.06-2.08-.11-3.13-.11-1.47,0-3.02.26-3.02,1.86,0,.87.42,1.31,1.62,2.11l1.49,1c1.69,1.13,2.29,2.09,2.29,3.42,0,2.57-2.17,3.9-5.08,3.9-1,0-2.31-.13-3.1-.26-.22-.04-.33-.11-.29-.33l.13-.73c.04-.25.11-.33.42-.29.82.07,2.15.11,2.99.11,1.97,0,3.18-.67,3.18-2.4,0-.87-.47-1.31-1.75-2.18l-1.58-1.07c-1.24-.84-1.98-1.87-1.98-3.19,0-2.53,2.2-3.44,4.68-3.44,1.07,0,2.73.11,3.4.22"/>
  <path class="cls-1" d="M214.91,58.08l-.24,1.38c-.47,2.77-1.97,4.44-4.84,4.44-2.18,0-3.35-1.42-3.35-3.44,0-.33.04-.65.09-1l.24-1.38c.51-2.95,2.11-4.44,4.82-4.44,2.24,0,3.37,1.42,3.37,3.42,0,.33-.04.67-.09,1.02M211.4,55.04c-1.59,0-2.68,1.18-2.99,3.04l-.24,1.38c-.07.4-.11.75-.11,1.07,0,1.29.58,1.97,2,1.97,1.6,0,2.69-1.26,3-3.04l.24-1.38c.07-.38.09-.73.09-1.04,0-1.31-.58-2-2-2"/>
  <path class="cls-1" d="M217.86,58.07l-.24,1.42c-.07.42-.11.76-.11,1.09,0,1.38.66,1.93,1.84,1.93.89,0,1.49-.04,2.29-.13.29-.05.36.07.33.27l-.11.65c-.04.25-.15.35-.44.4-.6.11-1.46.2-2.31.2-2.13,0-3.19-1.48-3.19-3.42,0-.33.04-.65.09-1l.24-1.42c.49-2.95,2.17-4.42,4.66-4.42.84,0,1.66.09,2.24.2.33.06.33.16.29.4l-.11.65c-.04.2-.11.33-.44.27-.78-.09-1.33-.13-2.22-.13-1.46,0-2.51,1.15-2.82,3.02"/>
  <path class="cls-1" d="M226.54,53.77c.22,0,.35.07.29.36l-1.62,9.28c-.04.2-.13.36-.44.36h-.88c-.25,0-.33-.18-.29-.36l1.62-9.28c.05-.33.24-.36.44-.36h.87ZM227.25,49.98c.26,0,.33.11.29.36l-.26,1.46c-.05.26-.14.36-.44.36h-.93c-.27,0-.33-.18-.29-.36l.25-1.46c.04-.2.16-.36.44-.36h.93Z"/>
  <path class="cls-1" d="M235.83,54.06c.33.07.34.18.31.42l-1.57,8.94c-.04.2-.13.36-.42.36h-.73c-.27,0-.31-.14-.27-.4l.09-.56c-1.07.76-1.71,1.09-2.93,1.09-1.55,0-2.84-.98-2.84-3.22,0-.35.04-.71.11-1.09l.33-1.8c.56-3.15,2.55-4.15,4.73-4.15,1.09,0,2.26.18,3.18.42M232.64,54.99c-1.88,0-2.82,1.04-3.17,2.97l-.33,1.88c-.06.27-.07.56-.07.84,0,1.4.71,1.89,1.58,1.89s1.64-.38,2.64-1.06l1.11-6.33c-.49-.09-1-.18-1.76-.18"/>
  <path class="cls-1" d="M240.36,50.09c.2,0,.31.09.25.35l-2.28,12.98c-.04.2-.11.36-.4.36h-.95c-.2,0-.29-.18-.25-.36l2.27-12.98c.04-.2.13-.35.4-.35h.95Z"/>
  <path class="cls-1" d="M201.73,71.94h.93c.2,0,.29.09.26.34l-2.24,12.74c-.04.24-.13.36-.46.42-1.17.22-2.29.31-3.4.31-2.22,0-3.3-1.36-3.3-3.35,0-.36.04-.75.11-1.15l.24-1.31c.56-3.13,2.09-4.46,4.75-4.46.57,0,1.42.05,2.09.18l.6-3.39c.05-.25.22-.34.42-.34M198.38,76.89c-1.78,0-2.59,1.29-2.91,3.06l-.24,1.31c-.07.44-.13.84-.13,1.18,0,1.24.55,1.91,1.95,1.91.62,0,1.51-.06,2.15-.11l1.27-7.23c-.58-.11-1.51-.13-2.09-.13"/>
  <path class="cls-1" d="M211.03,75.91c.33.07.35.18.31.42l-1.57,8.94c-.04.2-.13.36-.42.36h-.73c-.27,0-.31-.15-.27-.4l.09-.56c-1.07.76-1.71,1.09-2.93,1.09-1.55,0-2.84-.98-2.84-3.22,0-.35.04-.71.11-1.09l.33-1.8c.56-3.15,2.55-4.15,4.73-4.15,1.09,0,2.26.18,3.19.42M207.85,76.84c-1.88,0-2.82,1.04-3.17,2.97l-.33,1.88c-.05.27-.07.56-.07.84,0,1.4.71,1.89,1.58,1.89s1.64-.38,2.64-1.06l1.11-6.33c-.49-.09-1-.18-1.77-.18"/>
  <path class="cls-1" d="M220.26,72.1c.23,0,.31.11.27.35l-2.26,12.81c-.04.26-.15.36-.4.36h-1c-.24,0-.29-.18-.25-.36l2.26-12.81c.04-.18.11-.35.38-.35h1Z"/>
  <path class="cls-1" d="M229.37,79.28l-1.06,5.99c-.04.2-.24.36-.44.36h-.87c-.22,0-.33-.18-.29-.36l1.06-5.99c.05-.34.09-.71.09-1,0-.87-.36-1.38-1.69-1.38-.69,0-1.4.15-2.57.69l-1.35,7.68c-.04.18-.24.36-.44.36h-.89c-.22,0-.31-.2-.27-.36l1.62-9.28c.04-.2.15-.36.48-.36h.76c.29,0,.38.11.34.36l-.05.38c.87-.49,1.69-.87,2.93-.87,1.95,0,2.73,1.24,2.73,2.81,0,.31-.04.67-.09.98"/>
  <path class="cls-1" d="M238.78,71.94h.93c.2,0,.29.09.25.34l-2.24,12.74c-.04.24-.13.36-.45.42-1.16.22-2.29.31-3.4.31-2.22,0-3.29-1.36-3.29-3.35,0-.36.04-.75.11-1.15l.24-1.31c.57-3.13,2.09-4.46,4.75-4.46.57,0,1.42.05,2.09.18l.6-3.39c.05-.25.22-.34.42-.34M235.43,76.89c-1.78,0-2.59,1.29-2.91,3.06l-.24,1.31c-.07.44-.13.84-.13,1.18,0,1.24.55,1.91,1.95,1.91.62,0,1.51-.06,2.15-.11l1.28-7.23c-.58-.11-1.51-.13-2.09-.13"/>
  <path class="cls-1" d="M248.97,75.98l-1.62,9.28c-.04.2-.22.36-.42.36h-.86c-.18,0-.27-.13-.27-.29v-.07l.05-.33c-1.09.56-1.95.82-3.02.82-1.57,0-2.66-.96-2.66-2.88,0-.35.04-.71.11-1.11l1.02-5.79c.04-.2.24-.36.44-.36h.88c.18,0,.29.13.29.29v.07l-1.06,5.99c-.07.4-.11.75-.11,1.04,0,1.02.49,1.35,1.69,1.35.76,0,1.68-.26,2.58-.67l1.35-7.7c.04-.2.24-.36.44-.36h.89c.18,0,.27.15.27.29v.07ZM248.66,71.72l-2.48,2.29c-.2.18-.26.27-.46.27h-.98c-.09,0-.15-.04-.15-.11,0-.05.04-.13.11-.2l2.18-2.26c.2-.2.26-.27.48-.27h1.2c.11,0,.18.04.18.11,0,.04-.02.09-.09.16"/>
  <path class="cls-1" d="M256.71,75.73c.27.06.31.11.27.36l-.09.6c-.04.22-.15.35-.42.31-.62-.07-1.66-.15-2.67-.15-.84,0-1.91.24-1.91,1.29,0,.45.36.8.98,1.2l1.62,1.07c1.26.84,1.62,1.47,1.62,2.44,0,2.15-1.91,2.89-3.91,2.89-.76,0-2.04-.07-2.84-.27-.18-.04-.34-.16-.31-.36l.11-.64c.05-.24.15-.31.46-.27.85.11,2.17.2,2.82.2,1.07,0,2.06-.38,2.06-1.55,0-.42-.22-.75-1.06-1.29l-1.64-1.07c-1-.66-1.53-1.38-1.53-2.37,0-2.02,1.95-2.64,3.77-2.64,1.4,0,1.89.07,2.68.24"/>
  <path class="cls-1" d="M263.54,75.62c.22,0,.33.11.29.36l-.11.62c-.05.33-.22.36-.42.36h-1.97l-1.13,6.39c-.04.22-.05.38-.05.53,0,.53.25.58.84.58h1.11c.2,0,.29.05.25.26l-.11.64c-.04.16-.13.27-.38.31-.36.05-.8.09-1.15.09-1.24,0-2.18-.47-2.18-1.73,0-.24.02-.42.07-.71l1.13-6.35-1.73-.2c-.18-.02-.33-.15-.29-.33l.09-.49c.05-.26.2-.33.4-.33h1.77l.29-1.78c.04-.18.2-.33.4-.36l.97-.15c.25-.04.31.13.27.31l-.33,1.98h1.97Z"/>
  <path class="cls-1" d="M265.09,85.26c-.04.2-.24.36-.44.36h-.89c-.2,0-.31-.18-.27-.36l1.62-9.28c.04-.2.22-.36.42-.36h.86c.22,0,.31.18.27.36l-.07.42c.98-.76,1.86-.91,2.7-.91h.04c.31,0,.36.13.33.33l-.13.76c-.04.2-.18.31-.44.31h-.05c-1.04,0-1.71.18-2.6.75l-1.33,7.63Z"/>
  <path class="cls-1" d="M272.37,75.62c.22,0,.35.07.29.36l-1.62,9.28c-.04.2-.13.36-.44.36h-.87c-.25,0-.33-.18-.29-.36l1.62-9.28c.05-.33.24-.36.44-.36h.87ZM273.08,71.83c.25,0,.33.11.29.36l-.25,1.46c-.05.25-.14.36-.44.36h-.93c-.27,0-.33-.18-.29-.36l.25-1.46c.04-.2.16-.36.44-.36h.93Z"/>
  <path class="cls-1" d="M281.65,75.91c.33.07.34.18.31.42l-1.57,8.94c-.04.2-.13.36-.42.36h-.73c-.27,0-.31-.15-.27-.4l.09-.56c-1.08.76-1.71,1.09-2.93,1.09-1.55,0-2.84-.98-2.84-3.22,0-.35.04-.71.11-1.09l.33-1.8c.56-3.15,2.55-4.15,4.73-4.15,1.09,0,2.26.18,3.19.42M278.47,76.84c-1.87,0-2.82,1.04-3.17,2.97l-.33,1.88c-.05.27-.07.56-.07.84,0,1.4.71,1.89,1.58,1.89s1.64-.38,2.64-1.06l1.11-6.33c-.49-.09-1-.18-1.77-.18"/>
</svg>